<svg xmlns="http://www.w3.org/2000/svg" width="24" height="25" viewBox="0 0 24 25">
    <path fill="#4D5F71" d="M12 1.5c4.694 0 8.5 3.806 8.5 8.5 0 1.834-.458 3.471-1.456 5.164-.28.476-.893.634-1.37.354-.475-.28-.633-.893-.353-1.37C18.14 12.76 18.5 11.473 18.5 10c0-3.59-2.91-6.5-6.5-6.5S5.5 6.41 5.5 10c0 3.043 1.642 5.64 6.5 10.143.906-.839 1.68-1.591 2.35-2.285.384-.397 1.017-.408 1.414-.024.397.383.408 1.016.025 1.414-.864.894-1.884 1.872-3.116 2.992L12 22.85l-.673-.61C5.565 17.002 3.5 13.903 3.5 10c0-4.694 3.806-8.5 8.5-8.5zm0 4c2.485 0 4.5 2.015 4.5 4.5s-2.015 4.5-4.5 4.5-4.5-2.015-4.5-4.5S9.515 5.5 12 5.5zm0 2c-1.38 0-2.5 1.12-2.5 2.5s1.12 2.5 2.5 2.5 2.5-1.12 2.5-2.5-1.12-2.5-2.5-2.5z"/>
</svg>
